<svg width="26" height="25" viewBox="0 0 26 25" fill="none" xmlns="http://www.w3.org/2000/svg">
<path d="M7.14645 13.6089L10.9198 9.83554L1.55978 0.488875C0.560916 1.49062 0 2.84756 0 4.26221C0 5.67686 0.560916 7.03379 1.55978 8.03554L7.14645 13.6089ZM16.1865 11.1955C18.2265 12.1422 21.0931 11.4755 23.2131 9.35554C25.7598 6.80887 26.2531 3.15554 24.2931 1.19554C22.3465 -0.751125 18.6931 -0.271124 16.1331 2.27554C14.0131 4.39554 13.3465 7.26221 14.2931 9.30221L1.27978 22.3155L3.15978 24.1955L12.3465 15.0355L21.5198 24.2089L23.3998 22.3289L14.2265 13.1555L16.1865 11.1955Z" fill="white"/>
</svg>
