<svg width="32" height="32" viewBox="0 0 32 32" fill="none" xmlns="http://www.w3.org/2000/svg">
<path d="M19.9958 0.307985C19.9866 0.306153 19.9774 0.304932 19.9683 0.304932C19.9304 0.304932 19.8925 0.32142 19.8602 0.352566C19.3716 0.817304 18.2089 1.95747 17.2935 3.11168C17.8645 3.9465 18.4641 4.93582 18.7292 5.74072C19.3753 5.16056 20.4263 4.58834 21.3576 4.14498C20.9985 2.66832 20.3683 1.05547 20.1032 0.406307C20.0819 0.353176 20.0434 0.318367 19.9958 0.307985Z" fill="#591B1A"/>
<path d="M17.2934 3.11234C18.2089 1.95813 19.3716 0.817963 19.8602 0.353225C19.8931 0.322079 19.9304 0.305591 19.9683 0.305591C19.9774 0.305591 19.9866 0.306812 19.9957 0.308644C20.0434 0.319026 20.0812 0.353836 20.1032 0.406966C20.3683 1.05674 20.9985 2.66898 21.3576 4.14563C21.4534 4.09983 21.5481 4.05586 21.6403 4.01311C21.2947 2.6073 20.7157 1.10071 20.3854 0.291545C20.3249 0.143757 20.2064 0.0411603 20.0592 0.0100149C19.9127 -0.0217412 19.7631 0.0228394 19.6489 0.132154C19.0461 0.705595 17.978 1.76454 17.1102 2.84974C17.1713 2.93463 17.2324 3.02257 17.2934 3.11234Z" fill="#892B26"/>
<path d="M11.7569 0.443564C11.7246 0.418525 11.6898 0.405701 11.6556 0.405701C11.6415 0.405701 11.6281 0.408143 11.6147 0.412418C11.5689 0.427075 11.5353 0.464938 11.5194 0.51929C11.3289 1.16601 10.8916 2.73489 10.676 4.192C11.5878 4.62926 12.6021 5.18621 13.2342 5.7511C13.5041 4.92545 14.1276 3.90437 14.7127 3.05489C13.6629 1.95503 12.3114 0.874103 11.7569 0.443564Z" fill="#591B1A"/>
<path d="M10.6761 4.19145C10.8916 2.73434 11.3289 1.16546 11.5194 0.51874C11.5353 0.464388 11.5695 0.426525 11.6147 0.411868C11.6281 0.407593 11.6416 0.40515 11.6556 0.40515C11.6898 0.40515 11.7246 0.417975 11.757 0.443013C12.3115 0.872942 13.6629 1.95448 14.7127 3.05373C14.7732 2.9664 14.8324 2.8809 14.8916 2.79724C13.8895 1.75295 12.6352 0.737368 11.9445 0.201179C11.8187 0.103468 11.6642 0.0741543 11.5213 0.119956C11.379 0.165758 11.2715 0.279347 11.2269 0.4308C10.9918 1.22837 10.5967 2.67999 10.3872 4.05344C10.4813 4.09924 10.5784 4.14443 10.6761 4.19145Z" fill="#892B26"/>
<path d="M4.51911 4.64703C4.47392 4.64703 4.43544 4.66291 4.40857 4.69284C4.37621 4.72826 4.36583 4.77833 4.37926 4.83268C4.53743 5.48796 4.94354 7.06538 5.48522 8.43517C6.49346 8.35761 7.65011 8.33318 8.48065 8.50601C8.30171 7.65653 8.33103 6.46018 8.41286 5.43178C6.95454 5.00429 5.24277 4.74413 4.54781 4.64887C4.53743 4.64764 4.52827 4.64703 4.51911 4.64703Z" fill="#591B1A"/>
<path d="M5.48518 8.43515C4.9435 7.06536 4.53739 5.48794 4.37923 4.83266C4.36579 4.7777 4.37617 4.72824 4.40854 4.69282C4.43541 4.66289 4.47449 4.64701 4.51907 4.64701C4.52823 4.64701 4.53739 4.64762 4.54717 4.64885C5.24213 4.74411 6.95389 5.00488 8.41221 5.43176C8.42076 5.32611 8.42992 5.22229 8.43908 5.1203C7.04915 4.71724 5.45465 4.46503 4.58869 4.34594C4.43114 4.32457 4.28274 4.37587 4.18136 4.48762C4.08121 4.59877 4.04457 4.75022 4.08182 4.90412C4.27724 5.71267 4.66014 7.16735 5.16579 8.46141C5.27022 8.45286 5.37648 8.4437 5.48518 8.43515Z" fill="#892B26"/>
<path d="M0.307806 12.0035C0.298035 12.0505 0.313913 12.0987 0.352386 12.139C0.81712 12.6276 1.95727 13.7903 3.11147 14.7058C3.94629 14.1348 4.9356 13.5351 5.74049 13.27C5.16033 12.6239 4.58812 11.5729 4.14476 10.6416C2.66812 11.0007 1.05529 11.6309 0.405516 11.896C0.352997 11.918 0.318188 11.9558 0.307806 12.0035Z" fill="#591B1A"/>
<path d="M3.11146 14.7064C1.95726 13.7909 0.817104 12.6282 0.35237 12.1396C0.313286 12.0987 0.297408 12.0504 0.30779 12.004C0.318172 11.9564 0.352981 11.9185 0.406111 11.8966C1.05588 11.6315 2.6681 11.0019 4.14535 10.6422C4.09955 10.5463 4.05558 10.4517 4.01283 10.3588C2.60703 10.7045 1.10046 11.2834 0.291301 11.6138C0.143515 11.6743 0.0409193 11.7927 0.00977424 11.9399C-0.0213709 12.0865 0.0225987 12.2361 0.131912 12.3503C0.705348 12.9531 1.76428 14.0212 2.84947 14.889C2.93436 14.8285 3.0223 14.7674 3.11146 14.7064Z" fill="#892B26"/>
<path d="M0.443339 20.2429C0.407919 20.2887 0.396927 20.3388 0.411584 20.3852C0.42624 20.431 0.464103 20.4646 0.518454 20.4804C1.16517 20.671 2.73403 21.1082 4.19113 21.3238C4.62838 20.412 5.18533 19.3977 5.75022 18.7656C4.92457 18.4957 3.9035 17.8722 3.05403 17.2871C1.95479 18.3363 0.873874 19.6884 0.443339 20.2429Z" fill="#591B1A"/>
<path d="M4.19117 21.3238C2.73407 21.1083 1.16521 20.671 0.518491 20.4805C0.46414 20.4646 0.426277 20.4304 0.41162 20.3852C0.396964 20.3388 0.407956 20.2887 0.443376 20.2429C0.8733 19.6884 1.95483 18.3369 3.05407 17.2871C2.96674 17.2267 2.88124 17.1675 2.79758 17.1082C1.7533 18.1104 0.737728 19.3647 0.201544 20.0554C0.103834 20.1812 0.0745208 20.3357 0.120322 20.4786C0.166124 20.6209 0.279712 20.7284 0.431162 20.773C1.22872 21.0081 2.68033 21.4038 4.05376 21.6133C4.09895 21.518 4.14414 21.4215 4.19117 21.3238Z" fill="#892B26"/>
<path d="M4.69255 27.5914C4.72797 27.6238 4.77805 27.6341 4.8324 27.6207C5.48767 27.4625 7.06507 27.0564 8.43485 26.5147C8.35729 25.5065 8.33286 24.3504 8.50569 23.5205C8.05011 23.6164 7.49439 23.6524 6.91912 23.6524C6.42141 23.6524 5.90843 23.6255 5.43148 23.5877C5.004 25.046 4.74385 26.7578 4.64858 27.4528C4.64125 27.5096 4.65652 27.559 4.69255 27.5914Z" fill="#591B1A"/>
<path d="M8.43487 26.5147C7.06509 27.0564 5.48768 27.4625 4.83242 27.6207C4.77745 27.6341 4.72799 27.6237 4.69257 27.5914C4.65654 27.559 4.64127 27.5095 4.6486 27.4521C4.74387 26.7572 5.00463 25.0454 5.4315 23.5871C5.32524 23.5785 5.22204 23.5693 5.12005 23.5602C4.717 24.9501 4.46478 26.5446 4.3457 27.4106C4.32432 27.5682 4.37562 27.7166 4.48738 27.8179C4.56982 27.8924 4.67486 27.9315 4.78661 27.9315C4.82509 27.9315 4.86478 27.9266 4.90387 27.9175C5.71242 27.7221 7.16708 27.3392 8.46113 26.8335C8.45258 26.7291 8.44342 26.6228 8.43487 26.5147Z" fill="#892B26"/>
<path d="M12.0031 31.6922C12.0501 31.702 12.0983 31.6861 12.1386 31.6476C12.6272 31.1829 13.7899 30.0427 14.7054 28.8885C14.1344 28.0537 13.5347 27.0644 13.2696 26.2595C12.6235 26.8396 11.5725 27.4118 10.6412 27.8552C11.0003 29.3319 11.6306 30.9447 11.8956 31.5939C11.9176 31.647 11.9554 31.6818 12.0031 31.6922Z" fill="#591B1A"/>
<path d="M14.7054 28.8879C13.79 30.0421 12.6272 31.1823 12.1387 31.647C12.0978 31.6861 12.0495 31.702 12.0031 31.6916C11.9555 31.6812 11.9176 31.6464 11.8956 31.5933C11.6306 30.9435 11.0004 29.3313 10.6413 27.8546C10.5454 27.9004 10.4507 27.9444 10.3585 27.9871C10.7042 29.393 11.2831 30.8995 11.6135 31.7087C11.6739 31.8565 11.7924 31.9591 11.9396 31.9902C11.9701 31.997 12.0013 32 12.0318 32C12.1472 32 12.2596 31.9542 12.35 31.8681C12.9527 31.2947 14.0208 30.2357 14.8886 29.1505C14.8281 29.0656 14.7671 28.9777 14.7054 28.8879Z" fill="#892B26"/>
<path d="M20.2425 31.556C20.2883 31.5914 20.3383 31.6024 20.3848 31.5878C20.4306 31.5731 20.4641 31.5353 20.48 31.4809C20.6706 30.8342 21.1078 29.2653 21.3234 27.8082C20.4116 27.3709 19.3973 26.814 18.7652 26.2491C18.4953 27.0747 17.8718 28.0958 17.2867 28.9453C18.3359 30.0446 19.688 31.1261 20.2425 31.556Z" fill="#591B1A"/>
<path d="M21.3234 27.8082C21.1078 29.2653 20.6705 30.8342 20.48 31.4809C20.4641 31.5352 20.4299 31.5731 20.3847 31.5877C20.3383 31.6024 20.2883 31.5914 20.2425 31.556C19.6879 31.1261 18.3365 30.0445 17.2867 28.9453C17.2263 29.0326 17.167 29.1181 17.1078 29.2018C18.1099 30.2461 19.3643 31.2616 20.055 31.7978C20.1417 31.865 20.2425 31.9004 20.3432 31.9004C20.3884 31.9004 20.4342 31.8931 20.4782 31.879C20.6205 31.8332 20.7279 31.7197 20.7725 31.5682C21.0076 30.7706 21.4028 29.319 21.6122 27.9456C21.5176 27.901 21.4211 27.8552 21.3234 27.8082Z" fill="#892B26"/>
<path d="M27.5909 27.3068C27.6232 27.2714 27.6336 27.2213 27.6202 27.167C27.462 26.5117 27.0559 24.9343 26.5142 23.5645C26.0574 23.5993 25.5701 23.6237 25.0962 23.6237C24.5246 23.6237 23.9732 23.5883 23.5194 23.4937C23.6983 24.3431 23.669 25.5395 23.5872 26.5673C25.0455 26.9948 26.7573 27.2549 27.4522 27.3502C27.509 27.3587 27.5585 27.3429 27.5909 27.3068Z" fill="#591B1A"/>
<path d="M26.5142 23.5645C27.0559 24.9343 27.462 26.5117 27.6202 27.167C27.6336 27.2219 27.6232 27.2714 27.5908 27.3068C27.5585 27.3428 27.509 27.3587 27.4516 27.3508C26.7566 27.2555 25.0449 26.9947 23.5866 26.5679C23.578 26.6735 23.5689 26.7773 23.5597 26.8793C24.9496 27.2824 26.5441 27.5346 27.4101 27.6537C27.4339 27.6567 27.4571 27.6586 27.4803 27.6586C27.6116 27.6586 27.7313 27.6073 27.8174 27.512C27.9176 27.4009 27.9542 27.2494 27.917 27.0955C27.7215 26.2869 27.3386 24.8323 26.833 23.5382C26.7286 23.5474 26.6223 23.5559 26.5142 23.5645Z" fill="#892B26"/>
<path d="M27.8541 21.3581C29.3307 20.999 30.9436 20.3687 31.5927 20.1037C31.6459 20.0817 31.6813 20.0438 31.691 19.9962C31.7014 19.9492 31.6856 19.9009 31.6465 19.86C31.1817 19.3715 30.0416 18.2087 28.8874 17.2933C28.0526 17.8643 27.0632 18.464 26.2584 18.729C26.8385 19.3764 27.4107 20.4274 27.8541 21.3581Z" fill="#591B1A"/>
<path d="M31.8682 19.6499C31.2947 19.0472 30.2358 17.9797 29.1506 17.1113C29.0651 17.1717 28.9772 17.2322 28.8874 17.2939C30.0416 18.2093 31.1818 19.3721 31.6465 19.8606C31.6856 19.9015 31.7015 19.9498 31.6911 19.9968C31.6807 20.0444 31.6459 20.0823 31.5928 20.1043C30.943 20.3693 29.3308 20.9996 27.8541 21.3586C27.8999 21.4545 27.9439 21.5486 27.9866 21.6414C29.3925 21.2957 30.899 20.7168 31.7088 20.387C31.8566 20.3266 31.9592 20.2081 31.9903 20.0609C32.0215 19.9144 31.9769 19.7647 31.8682 19.6499Z" fill="#892B26"/>
<path d="M31.5555 11.7573C31.5909 11.7115 31.6019 11.6614 31.5872 11.615C31.5726 11.5692 31.5347 11.5356 31.4804 11.5198C30.8336 11.3292 29.2648 10.892 27.8077 10.6764C27.3704 11.5882 26.8135 12.6019 26.2486 13.2346C27.0742 13.5045 28.0953 14.128 28.9448 14.7131C30.044 13.6633 31.1255 12.3118 31.5555 11.7573Z" fill="#591B1A"/>
<path d="M27.8077 10.6764C29.2648 10.892 30.8343 11.3293 31.4804 11.5198C31.5341 11.5357 31.572 11.5693 31.5872 11.6151C31.6019 11.6615 31.5909 11.7116 31.5555 11.7574C31.1256 12.3119 30.044 13.6633 28.9448 14.7131C29.0321 14.7736 29.1176 14.8328 29.2013 14.8921C30.2455 13.8899 31.2611 12.6355 31.7973 11.9448C31.895 11.819 31.9243 11.6645 31.8785 11.5216C31.8327 11.3793 31.7191 11.2719 31.5677 11.2273C30.7701 10.9922 29.3185 10.597 27.9451 10.3876C27.9005 10.4822 27.8547 10.5787 27.8077 10.6764Z" fill="#892B26"/>
<path d="M27.3063 4.40883C27.2807 4.38563 27.2483 4.37402 27.2116 4.37402C27.197 4.37402 27.1817 4.37586 27.1665 4.37952C26.5112 4.53769 24.9338 4.9438 23.564 5.48549C23.6416 6.49374 23.666 7.6504 23.4932 8.48094C24.3426 8.30201 25.539 8.33132 26.5674 8.41316C26.9949 6.95482 27.255 5.24304 27.3503 4.54807C27.3582 4.49067 27.3423 4.4412 27.3063 4.40883Z" fill="#591B1A"/>
<path d="M23.564 5.4855C24.9338 4.94382 26.5112 4.5377 27.1665 4.37953C27.1817 4.37587 27.197 4.37404 27.2117 4.37404C27.2483 4.37404 27.2813 4.38564 27.3063 4.40885C27.3424 4.44121 27.3576 4.49068 27.3503 4.54809C27.255 5.24306 26.9943 6.95483 26.5674 8.41317C26.673 8.42172 26.7769 8.43088 26.8788 8.44004C27.2819 7.0501 27.5341 5.45558 27.6532 4.58961C27.6746 4.43205 27.6233 4.28366 27.5115 4.18228C27.4004 4.08213 27.2489 4.04549 27.095 4.08274C26.2865 4.27816 24.8318 4.66106 23.5378 5.16672C23.5469 5.27054 23.5555 5.3768 23.564 5.4855Z" fill="#892B26"/>
<path d="M25.9292 18.8218C25.7844 18.8536 25.6483 18.8713 25.5237 18.8713C24.982 18.8713 24.4751 18.7211 24.0415 18.4609C24.0727 18.3596 24.1014 18.2582 24.1289 18.155C24.5313 18.4145 25.0101 18.566 25.5237 18.566C26.7292 18.566 29.2654 16.674 30.0141 16.0945C30.0483 16.0676 30.0684 16.0279 30.0684 15.9846C30.0684 15.9412 30.0489 15.9009 30.0141 15.8746C29.3551 15.3641 27.3118 13.8386 26.0098 13.4795C25.9005 13.579 25.7912 13.6627 25.6831 13.725C25.2385 13.9821 24.7444 14.1128 24.2443 14.1128C24.2278 14.1128 24.2113 14.1116 24.1954 14.111C24.1716 14.0077 24.1454 13.9052 24.1179 13.8032C24.6083 13.8276 25.0956 13.711 25.531 13.46C26.5747 12.8572 27.8254 9.95091 28.1838 9.07395C28.2003 9.03365 28.1973 8.98907 28.1759 8.9512C28.1539 8.91334 28.1173 8.88891 28.0739 8.88281C27.5298 8.80891 26.2437 8.65318 25.0559 8.65318C24.4415 8.65318 23.8541 8.69532 23.4089 8.81135C23.3643 8.95242 23.3112 9.07884 23.2489 9.18693C22.9771 9.65717 22.5918 10.0217 22.1478 10.2672C22.0757 10.1897 22.0018 10.1134 21.9273 10.0388C22.3554 9.82022 22.7273 9.48067 22.9851 9.03426C23.5878 7.99058 23.2177 4.84795 23.0901 3.90931C23.084 3.86595 23.0596 3.82931 23.0217 3.80733C23.0003 3.79511 22.9765 3.7884 22.9521 3.7884C22.9344 3.7884 22.916 3.79206 22.8989 3.79878C22.0226 4.15725 19.1157 5.40796 18.513 6.45163C18.2547 6.89927 18.1466 7.39271 18.1716 7.87394C18.0696 7.84646 17.9664 7.82081 17.8626 7.7976C17.8522 7.28889 17.9756 6.77103 18.2479 6.29957C18.309 6.19392 18.3896 6.08705 18.4867 5.98018C18.1234 4.67757 16.6034 2.64212 16.094 1.98441C16.0672 1.95021 16.0275 1.93005 15.9841 1.93005C15.9408 1.93005 15.9005 1.9496 15.8742 1.98441C15.3637 2.64334 13.8382 4.68673 13.4791 5.98873C13.5786 6.09804 13.6623 6.20735 13.7246 6.31484C13.9896 6.77408 14.1209 7.28584 14.1124 7.80249C14.0085 7.8263 13.906 7.85256 13.8034 7.88066C13.8278 7.39027 13.7111 6.90294 13.4601 6.46751C12.8574 5.42383 9.95114 4.17313 9.07419 3.81466C9.05709 3.80733 9.03877 3.80427 9.02106 3.80427C8.99724 3.80427 8.97342 3.81038 8.95144 3.82321C8.91358 3.84458 8.88915 3.88183 8.88304 3.92519C8.77068 4.75085 8.47083 7.2834 8.81159 8.59089C8.95266 8.63547 9.07968 8.6886 9.18716 8.7509C9.65739 9.02265 10.0226 9.40739 10.2681 9.85198C10.1905 9.92404 10.1142 9.99793 10.0391 10.073C9.82045 9.64495 9.48091 9.27304 9.03449 9.01533C8.59602 8.7625 7.78808 8.68066 6.92823 8.68066C5.74044 8.68066 4.45433 8.83639 3.91021 8.91029C3.86685 8.91639 3.83021 8.94082 3.80822 8.97868C3.78624 9.01655 3.7838 9.06113 3.80029 9.10143C4.11601 9.87274 5.12242 12.216 6.07082 13.1778C6.21556 13.1461 6.35174 13.1283 6.47632 13.1283C7.018 13.1283 7.52487 13.2786 7.95846 13.5387C7.92732 13.6401 7.89861 13.7415 7.87113 13.8447C7.46869 13.5851 6.98991 13.4337 6.47632 13.4337C5.27143 13.4337 2.73463 15.3256 1.98593 15.9052C1.95173 15.932 1.93158 15.9717 1.93158 16.0151C1.93158 16.0585 1.95112 16.0988 1.98593 16.125C2.64486 16.6356 4.68823 18.1611 5.99021 18.5202C6.09953 18.4206 6.20884 18.337 6.31632 18.2747C6.77556 18.0096 7.28731 17.8783 7.80396 17.8869C7.82777 17.9907 7.85403 18.0933 7.88212 18.1959C7.39174 18.1715 6.90441 18.2881 6.46899 18.5391C5.42533 19.1419 4.17464 22.0481 3.81616 22.9251C3.79967 22.9654 3.80273 23.01 3.8241 23.0472C3.84548 23.0851 3.88273 23.1095 3.92609 23.1156C4.75174 23.228 7.28426 23.5279 8.59174 23.1871C8.63632 23.046 8.68945 22.919 8.75174 22.8115C9.0235 22.3413 9.40823 21.9761 9.85282 21.7306C9.92488 21.8081 9.99877 21.8845 10.0739 21.959C9.64579 22.1776 9.27388 22.5172 9.01617 22.9636C8.41342 24.0073 8.7835 27.1499 8.91113 28.0885C8.91724 28.1319 8.94167 28.1685 8.97953 28.1905C9.01678 28.2119 9.06197 28.2149 9.10228 28.1984C9.87358 27.8827 12.2168 26.8763 13.1786 25.9279C13.1469 25.7832 13.1292 25.647 13.1292 25.5224C13.1292 24.9807 13.2794 24.4738 13.5395 24.0402C13.6409 24.0714 13.7423 24.1001 13.8455 24.1276C13.586 24.53 13.4345 25.0088 13.4345 25.5224C13.4345 26.7273 15.3264 29.2641 15.906 30.0128C15.9591 30.0818 16.0733 30.0818 16.1264 30.0128C16.6369 29.3539 18.1624 27.3105 18.5215 26.0085C18.422 25.8992 18.3383 25.7899 18.276 25.6824C18.011 25.2231 17.8797 24.7114 17.8882 24.1947C17.9921 24.1709 18.0947 24.1447 18.1973 24.1166C18.1728 24.607 18.2895 25.0943 18.5405 25.5297C19.1432 26.5734 22.0495 27.8241 22.9264 28.1826C22.9667 28.1991 23.0113 28.196 23.0486 28.1746C23.0864 28.1533 23.1109 28.116 23.117 28.0726C23.2293 27.247 23.5292 24.7138 23.1884 23.4069C23.0473 23.3624 22.9203 23.3098 22.8128 23.2475C22.3426 22.9758 21.9774 22.5911 21.7319 22.1465C21.8095 22.0744 21.8858 22.0005 21.9609 21.9254C22.1796 22.3535 22.5191 22.7254 22.9655 22.9831C24.0092 23.5859 27.1518 23.2158 28.0904 23.0882C28.1338 23.0821 28.1704 23.0576 28.1924 23.0198C28.2144 22.9819 28.2168 22.9373 28.2003 22.897C27.884 22.1263 26.8776 19.7837 25.9292 18.8218ZM8.20029 15.9998C8.20029 11.6993 11.6989 8.20066 15.9994 8.20066C20.2999 8.20066 23.7985 11.6993 23.7985 15.9998C23.7985 20.3003 20.2999 23.799 15.9994 23.799C11.6989 23.799 8.20029 20.3003 8.20029 15.9998Z" fill="#CB8B3B"/>
<path d="M27.8541 21.358C27.4108 20.4267 26.8385 19.3763 26.2584 18.7296C27.0639 18.464 28.0532 17.8649 28.8874 17.2939C28.9772 17.2322 29.0651 17.1717 29.1506 17.1113C29.5708 16.8157 29.9378 16.5397 30.201 16.3357C30.3109 16.2508 30.3738 16.1226 30.3738 15.9839C30.3738 15.8453 30.3109 15.7171 30.201 15.6322C29.9482 15.4361 29.6001 15.1736 29.2013 14.892C29.1176 14.8328 29.0327 14.7735 28.9448 14.7131C28.0953 14.128 27.0743 13.5045 26.2486 13.2346C26.8135 12.6019 27.3704 11.5882 27.8077 10.6764C27.8547 10.5787 27.8999 10.4816 27.9445 10.3869C28.1607 9.92097 28.3402 9.49837 28.4666 9.18997C28.5192 9.06173 28.5094 8.91943 28.4404 8.79913C28.3714 8.67943 28.2523 8.59943 28.1155 8.58111C27.7985 8.53775 27.3656 8.48462 26.8795 8.44004C26.7775 8.43088 26.6743 8.42172 26.568 8.41317C25.5402 8.33134 24.3439 8.30202 23.4938 8.48096C23.6666 7.65102 23.6422 6.49437 23.5646 5.4855C23.5561 5.37741 23.5475 5.27054 23.5384 5.16611C23.4926 4.65496 23.437 4.19877 23.3918 3.86838C23.3729 3.73098 23.2935 3.6125 23.1738 3.54349C23.0541 3.47449 22.9112 3.46471 22.783 3.51723C22.4868 3.63815 22.0856 3.80854 21.6422 4.01312C21.5494 4.05587 21.4553 4.09984 21.3594 4.14564C20.4281 4.589 19.3772 5.16122 18.731 5.74138C18.4654 4.93588 17.8663 3.94655 17.2953 3.11234C17.2336 3.02257 17.1732 2.93463 17.1127 2.84914C16.8171 2.42898 16.5411 2.06195 16.3371 1.79874C16.2523 1.68943 16.124 1.62653 15.9854 1.62653C15.8468 1.62653 15.7185 1.68943 15.6336 1.79874C15.4376 2.05157 15.175 2.39966 14.8935 2.79845C14.8342 2.88211 14.775 2.967 14.7145 3.05494C14.1295 3.90441 13.506 4.92549 13.2361 5.75115C12.6034 5.18626 11.5897 4.62931 10.6779 4.19205C10.5802 4.14503 10.4837 4.09984 10.3884 4.05526C9.92248 3.83907 9.49988 3.65953 9.19149 3.53311C9.06324 3.48059 8.92095 3.49036 8.80064 3.55937C8.68095 3.62838 8.60095 3.74747 8.58263 3.88487C8.53927 4.20182 8.48614 4.6348 8.44156 5.12092C8.4324 5.2229 8.42324 5.32611 8.41469 5.43237C8.33286 6.46017 8.30354 7.65652 8.48248 8.5066C7.65255 8.33378 6.49591 8.35821 5.48705 8.43576C5.37896 8.44431 5.27209 8.45286 5.16766 8.46202C4.65652 8.50783 4.20033 8.5634 3.86995 8.60859C3.73254 8.62752 3.61407 8.70691 3.54506 8.82661C3.47606 8.9463 3.46628 9.08921 3.5188 9.21745C3.63972 9.51364 3.8101 9.91487 4.01468 10.3588C4.05743 10.4517 4.1014 10.5463 4.1472 10.6422C4.59056 11.5735 5.16278 12.6239 5.74293 13.2706C4.93743 13.5363 3.94812 14.1354 3.11392 14.7064C3.02415 14.7681 2.93621 14.8285 2.85071 14.889C2.43056 15.1845 2.06353 15.4606 1.80033 15.6645C1.69101 15.7494 1.62811 15.8777 1.62811 16.0163C1.62811 16.1549 1.69101 16.2832 1.80033 16.3681C2.05315 16.5641 2.40124 16.8267 2.80002 17.1082C2.88369 17.1675 2.96857 17.2267 3.05651 17.2872C3.90598 17.8722 4.92705 18.4957 5.7527 18.7657C5.18781 19.3983 4.63087 20.4121 4.19361 21.3238C4.14659 21.4216 4.1014 21.5187 4.05682 21.6133C3.84064 22.0793 3.66109 22.5019 3.53529 22.8103C3.48277 22.9385 3.49254 23.0808 3.56155 23.2011C3.63056 23.3214 3.74964 23.4008 3.88705 23.4191C4.20399 23.4625 4.63697 23.5156 5.12308 23.5602C5.22507 23.5694 5.32827 23.5785 5.43453 23.5871C5.91087 23.6249 6.42385 23.6518 6.92217 23.6518C7.49744 23.6518 8.05316 23.6158 8.50874 23.5199C8.33591 24.3498 8.36034 25.5065 8.4379 26.5141C8.44644 26.6222 8.455 26.7291 8.46416 26.8335C8.50996 27.3447 8.56553 27.8009 8.61072 28.1313C8.62965 28.2687 8.70904 28.3871 8.82874 28.4561C8.89774 28.4958 8.97408 28.516 9.05042 28.516C9.10721 28.516 9.16461 28.505 9.21958 28.4824C9.51576 28.3615 9.91698 28.1911 10.3603 27.9865C10.4532 27.9438 10.5472 27.8998 10.6431 27.854C11.5744 27.4106 12.6254 26.8384 13.2715 26.2583C13.5371 27.0638 14.1362 28.0531 14.7072 28.8873C14.7689 28.9771 14.8294 29.065 14.8898 29.1505C15.1854 29.5707 15.4614 29.9377 15.6654 30.2009C15.7503 30.3102 15.8785 30.3731 16.0171 30.3731C16.1558 30.3731 16.284 30.3102 16.3689 30.2009C16.5649 29.9481 16.8275 29.6 17.1091 29.2012C17.1683 29.1175 17.2275 29.0326 17.288 28.9447C17.873 28.0952 18.4965 27.0741 18.7665 26.2485C19.3991 26.8134 20.4129 27.3703 21.3246 27.8076C21.4223 27.8546 21.5188 27.8998 21.6141 27.9444C22.0801 28.1606 22.5027 28.3401 22.8111 28.4665C22.866 28.4891 22.9228 28.5001 22.9802 28.5001C23.0572 28.5001 23.1329 28.48 23.2019 28.4403C23.3216 28.3713 23.4016 28.2522 23.4199 28.1148C23.4633 27.7978 23.5164 27.3648 23.561 26.8787C23.5701 26.7767 23.5793 26.6735 23.5878 26.5673C23.6697 25.5395 23.699 24.3437 23.5201 23.4936C23.9738 23.5883 24.5253 23.6237 25.0969 23.6237C25.5707 23.6237 26.0581 23.5993 26.5149 23.5645C26.623 23.5559 26.7298 23.5474 26.8343 23.5382C27.3454 23.4924 27.8016 23.4369 28.132 23.3917C28.2694 23.3727 28.3879 23.2933 28.4575 23.1736C28.5265 23.0539 28.5363 22.911 28.4837 22.7828C28.3628 22.4866 28.1924 22.0854 27.9879 21.6414C27.9439 21.5486 27.8993 21.4539 27.8541 21.358ZM28.1912 23.0204C28.1692 23.0582 28.1326 23.0826 28.0892 23.0888C27.1512 23.2164 24.0086 23.5865 22.9643 22.9837C22.5179 22.726 22.1784 22.3541 21.9598 21.926C21.8852 22.0011 21.8083 22.075 21.7307 22.1471C21.9762 22.591 22.3408 22.9764 22.8117 23.2481C22.9198 23.3104 23.0468 23.363 23.1872 23.4075C23.528 24.7144 23.2281 27.2476 23.1158 28.0732C23.1097 28.1166 23.0852 28.1532 23.0474 28.1752C23.0101 28.1966 22.9649 28.2003 22.9252 28.1832C22.0489 27.8247 19.142 26.574 18.5393 25.5303C18.2883 25.0949 18.1717 24.6076 18.1961 24.1172C18.0941 24.1446 17.9909 24.1709 17.8871 24.1953C17.8785 24.712 18.0092 25.2237 18.2749 25.683C18.3372 25.7911 18.4208 25.8998 18.5204 26.0091C18.1619 27.3111 16.6358 29.3545 16.1252 30.0134C16.0721 30.0824 15.9579 30.0824 15.9048 30.0134C15.3252 29.2647 13.4333 26.7279 13.4333 25.523C13.4333 25.0094 13.5848 24.5306 13.8443 24.1282C13.7417 24.1007 13.6397 24.072 13.5384 24.0408C13.2782 24.4744 13.128 24.9813 13.128 25.523C13.128 25.6476 13.1457 25.7837 13.1774 25.9285C12.2156 26.8769 9.8724 27.8833 9.1011 28.199C9.0608 28.2155 9.01622 28.2125 8.97835 28.1911C8.94049 28.1691 8.91606 28.1325 8.90996 28.0891C8.78232 27.1511 8.41225 24.0079 9.015 22.9642C9.27271 22.5178 9.64462 22.1782 10.0727 21.9596C9.99759 21.8851 9.9237 21.8081 9.85164 21.7312C9.40767 21.9767 9.02232 22.3413 8.75057 22.8121C8.68828 22.9202 8.63576 23.0466 8.59057 23.1877C7.2837 23.5278 4.75117 23.2286 3.92491 23.1162C3.88155 23.1101 3.84491 23.0857 3.82293 23.0478C3.80094 23.01 3.7985 22.9654 3.81499 22.9257C4.17346 22.0494 5.42415 19.1425 6.46782 18.5397C6.90324 18.2887 7.39057 18.1721 7.88095 18.1965C7.85347 18.0945 7.82721 17.9913 7.80278 17.8875C7.28553 17.8789 6.77438 18.0096 6.31514 18.2753C6.20705 18.3376 6.09835 18.4212 5.98904 18.5208C4.68705 18.1623 2.64369 16.6362 1.98475 16.1256C1.95056 16.0988 1.9304 16.0591 1.9304 16.0157C1.9304 15.9723 1.94995 15.932 1.98475 15.9058C2.73346 15.3262 5.27026 13.4343 6.47514 13.4343C6.98873 13.4343 7.46751 13.5857 7.86996 13.8453C7.89744 13.7427 7.92614 13.6407 7.95728 13.5393C7.5237 13.2792 7.01682 13.1289 6.47514 13.1289C6.35056 13.1289 6.21438 13.1467 6.06965 13.1784C5.12125 12.2166 4.11484 9.87334 3.79911 9.10203C3.78262 9.06173 3.78567 9.01714 3.80705 8.97928C3.82903 8.94142 3.86567 8.91699 3.90903 8.91088C4.45316 8.83699 5.73927 8.68126 6.92705 8.68126C7.7869 8.68126 8.59545 8.7631 9.03332 9.01592C9.47973 9.27364 9.81927 9.64555 10.0379 10.0736C10.1124 9.99853 10.1894 9.92464 10.2669 9.85257C10.0214 9.4086 9.65683 9.02325 9.18599 8.75149C9.0779 8.6892 8.95148 8.63668 8.81042 8.59149C8.47026 7.28461 8.7695 4.75206 8.88187 3.92579C8.88797 3.88243 8.9124 3.84579 8.95026 3.8238C8.97164 3.81159 8.99545 3.80487 9.01988 3.80487C9.03759 3.80487 9.05591 3.80854 9.07301 3.81525C9.94935 4.17373 12.8562 5.42443 13.459 6.46811C13.71 6.90353 13.8266 7.39087 13.8022 7.88125C13.9042 7.85377 14.0074 7.82751 14.1112 7.80308C14.1197 7.28644 13.9891 6.77468 13.7234 6.31543C13.6611 6.20734 13.5774 6.09864 13.4779 5.98932C13.8364 4.68732 15.3625 2.64394 15.873 1.985C15.8999 1.9508 15.9396 1.93065 15.9829 1.93065C16.0263 1.93065 16.0666 1.95019 16.0929 1.985C16.6022 2.64211 18.1222 4.67816 18.4855 5.98077C18.3884 6.08765 18.3078 6.19452 18.2468 6.30017C17.9744 6.77223 17.851 7.28949 17.8614 7.7982C17.9652 7.82202 18.0678 7.84767 18.1704 7.87454C18.1454 7.39331 18.2535 6.89987 18.5118 6.45223C19.1146 5.40855 22.0208 4.15785 22.8978 3.79938C22.9149 3.79205 22.9332 3.78899 22.9509 3.78899C22.9747 3.78899 22.9985 3.7951 23.0205 3.80792C23.0584 3.82991 23.0828 3.86655 23.0889 3.90991C23.2165 4.84794 23.5866 7.99118 22.9839 9.03485C22.7262 9.48127 22.3543 9.82082 21.9262 10.0394C22.0013 10.114 22.0746 10.1903 22.1466 10.2678C22.5906 10.0223 22.9759 9.65776 23.2477 9.18753C23.31 9.07944 23.3625 8.95302 23.4077 8.81195C23.8535 8.69592 24.4404 8.65378 25.0547 8.65378C26.2425 8.65378 27.5286 8.80951 28.0727 8.8834C28.1161 8.88951 28.1527 8.91394 28.1747 8.9518C28.1961 8.98966 28.1992 9.03424 28.1827 9.07455C27.8242 9.9509 26.5735 12.8578 25.5298 13.4606C25.0944 13.7115 24.6071 13.8282 24.1167 13.8038C24.1442 13.9057 24.1704 14.0083 24.1943 14.1116C24.2107 14.1116 24.2272 14.1134 24.2431 14.1134C24.7433 14.1134 25.2373 13.9821 25.6819 13.7256C25.79 13.6633 25.8987 13.5796 26.0086 13.4801C27.3112 13.8386 29.354 15.3647 30.0129 15.8752C30.0471 15.9021 30.0672 15.9418 30.0672 15.9852C30.0672 16.0285 30.0477 16.0688 30.0129 16.0951C29.2642 16.6746 26.7274 18.5666 25.5225 18.5666C25.0089 18.5666 24.5301 18.4151 24.1277 18.1556C24.1002 18.2582 24.0715 18.3602 24.0404 18.4615C24.474 18.7217 24.9808 18.8719 25.5225 18.8719C25.6471 18.8719 25.7833 18.8542 25.928 18.8224C26.8764 19.7843 27.8828 22.1275 28.1985 22.8988C28.2163 22.9385 28.2132 22.9831 28.1912 23.0204Z" fill="#D3C2AB"/>
<path d="M15.9994 23.799C20.2999 23.799 23.7985 20.3003 23.7985 15.9998C23.7985 11.6993 20.2999 8.20062 15.9994 8.20062C11.699 8.20062 8.20032 11.6993 8.20032 15.9998C8.20032 20.3003 11.699 23.799 15.9994 23.799ZM23.1316 15.9998C23.1316 19.9327 19.9322 23.1321 15.9994 23.1321C12.0666 23.1321 8.8678 19.9327 8.8678 15.9998C8.8678 12.0669 12.0672 8.86811 15.9994 8.86811C19.9316 8.86811 23.1316 12.0675 23.1316 15.9998Z" fill="#892B26"/>
<path d="M15.9994 21.9107C19.2639 21.9107 21.9103 19.2643 21.9103 15.9998C21.9103 12.7353 19.2639 10.0889 15.9994 10.0889C12.7349 10.0889 10.0886 12.7353 10.0886 15.9998C10.0886 19.2643 12.7349 21.9107 15.9994 21.9107Z" fill="#591B1A"/>
<path d="M8.8678 15.9998C8.8678 19.9327 12.0672 23.1321 16 23.1321C19.9329 23.1321 23.1316 19.9327 23.1316 15.9998C23.1316 12.0669 19.9322 8.8681 15.9994 8.8681C12.0666 8.8681 8.8678 12.0675 8.8678 15.9998ZM15.9994 10.0895C19.2587 10.0895 21.9103 12.7411 21.9103 16.0004C21.9103 19.2597 19.2587 21.9113 15.9994 21.9113C12.7402 21.9113 10.0886 19.2597 10.0886 16.0004C10.0886 12.7411 12.7402 10.0895 15.9994 10.0895Z" fill="#CB8B3B"/>
</svg>
